HIERARCHY
ROOT root
{
	OFFSET 0.000000 0.000000 0.000000
	CHANNELS 6 Xposition Yposition Zposition Zrotation Yrotation Xrotation
	JOINT lhip
	{
		OFFSET 0.058581 -0.082280 -0.017664
		CHANNELS 3 Zrotation Yrotation Xrotation
		JOINT lknee
		{
			OFFSET 0.043451 -0.386469 0.008037
			CHANNELS 3 Zrotation Yrotation Xrotation
			JOINT lankle
			{
				OFFSET -0.014790 -0.426874 -0.037428
				CHANNELS 3 Zrotation Yrotation Xrotation
				JOINT ltoe
				{
					OFFSET 0.041054 -0.060286 0.122042
					CHANNELS 3 Zrotation Yrotation Xrotation
					End Site
					{
						OFFSET 0.000000 0.000000 0.000000
					}
				}
			}
		}
	}
	JOINT rhip
	{
		OFFSET -0.060310 -0.090513 -0.013543
		CHANNELS 3 Zrotation Yrotation Xrotation
		JOINT rknee
		{
			OFFSET -0.043257 -0.383688 -0.004843
			CHANNELS 3 Zrotation Yrotation Xrotation
			JOINT rankle
			{
				OFFSET 0.019056 -0.420046 -0.034562
				CHANNELS 3 Zrotation Yrotation Xrotation
				JOINT rtoe
				{
					OFFSET -0.034840 -0.062106 0.130323
					CHANNELS 3 Zrotation Yrotation Xrotation
					End Site
					{
						OFFSET 0.000000 0.000000 0.000000
					}
				}
			}
		}
	}
	JOINT lowerback
	{
		OFFSET 0.004439 0.124404 -0.038385
		CHANNELS 3 Zrotation Yrotation Xrotation
		JOINT upperback
		{
			OFFSET 0.004488 0.137956 0.026820
			CHANNELS 3 Zrotation Yrotation Xrotation
			JOINT chest
			{
				OFFSET -0.002265 0.056032 0.002855
				CHANNELS 3 Zrotation Yrotation Xrotation
				JOINT lowerneck
				{
					OFFSET -0.013390 0.211636 -0.033468
					CHANNELS 3 Zrotation Yrotation Xrotation
					JOINT upperneck
					{
						OFFSET 0.010113 0.088937 0.050410
						CHANNELS 3 Zrotation Yrotation Xrotation
						End Site
						{
							OFFSET 0.000000 0.000000 0.000000
						}
					}
				}
				JOINT lclavicle
				{
					OFFSET 0.071702 0.114000 -0.018898
					CHANNELS 3 Zrotation Yrotation Xrotation
					JOINT lshoulder
					{
						OFFSET 0.122921 0.045205 -0.019046
						CHANNELS 3 Zrotation Yrotation Xrotation
						JOINT lelbow
						{
							OFFSET 0.255332 -0.015649 -0.022946
							CHANNELS 3 Zrotation Yrotation Xrotation
							JOINT lwrist
							{
								OFFSET 0.265709 0.012698 -0.007375
								CHANNELS 3 Zrotation Yrotation Xrotation
								End Site
								{
									OFFSET 0.000000 0.000000 0.000000
								}
							}
						}
					}
				}
				JOINT rclavicle
				{
					OFFSET -0.082954 0.112472 -0.023707
					CHANNELS 3 Zrotation Yrotation Xrotation
					JOINT rshoulder
					{
						OFFSET -0.113228 0.046853 -0.008472
						CHANNELS 3 Zrotation Yrotation Xrotation
						JOINT relbow
						{
							OFFSET -0.260127 -0.014369 -0.031269
							CHANNELS 3 Zrotation Yrotation Xrotation
							JOINT rwrist
							{
								OFFSET -0.269108 0.006794 -0.006027
								CHANNELS 3 Zrotation Yrotation Xrotation
								End Site
								{
									OFFSET 0.000000 0.000000 0.000000
								}
							}
						}
					}
				}
			}
		}
	}
}
MOTION
Frames: 14
Frame Time: 0.033333
0.022776 0.227000 0.991341 89.278303 0.587954 90.382061 6.556373 1.047477 -3.476480 -3.582523 -6.159163 7.839417 -0.196941 7.904338 -7.197812 0.000000 -0.000000 0.000000 -4.806941 -2.059237 -4.113608 -0.007413 2.391675 8.238949 3.079287 -4.028268 -5.819903 0.000000 -0.000000 0.000000 -0.497144 1.290689 9.842525 -2.550757 -0.014025 4.056146 -2.684782 0.581094 -4.780345 0.167307 -11.586000 0.468929 5.198014 -13.459112 -2.727163 -28.840209 2.977768 4.054989 -43.524435 -3.219750 13.659573 11.074853 -72.518180 13.433675 2.315407 -10.631743 -9.062830 25.711530 9.931272 4.276525 58.548789 9.667006 19.459317 -4.113843 24.586170 7.257681 2.206343 2.711214 5.671793 
0.022134 0.226442 0.991297 89.393497 0.609843 90.242717 6.636829 1.002248 -3.412194 -3.688625 -6.307473 7.892682 -0.289281 8.041152 -7.176920 0.000000 -0.000000 0.000000 -4.712063 -2.116997 -3.967059 -0.085561 2.478941 8.211327 3.256862 -4.203292 -5.808064 0.000000 -0.000000 0.000000 -0.553603 1.027203 10.260807 -2.617830 0.037403 3.453717 -2.613923 0.622896 -4.384452 0.093549 -11.369421 0.609576 5.151742 -13.388462 -2.189266 -28.571907 2.690312 4.163938 -43.683428 -3.145078 13.675873 11.362754 -72.719598 13.651415 3.490166 -10.552698 -10.113237 25.606576 10.163591 4.187241 58.769648 9.501836 19.531689 -4.265214 24.643023 7.437065 1.668502 2.863324 4.836397 
0.021470 0.226029 0.991228 89.465038 0.597811 90.270246 6.638074 0.874061 -3.495848 -3.703073 -6.296330 7.883884 -0.263636 8.056935 -7.153410 0.000000 -0.000000 0.000000 -4.669732 -2.132747 -4.049641 -0.131438 2.475695 8.243372 3.251682 -4.260173 -5.782596 0.000000 -0.000000 0.000000 -0.635521 0.896633 10.403886 -2.629264 0.023462 3.253787 -2.585827 0.637113 -4.301533 0.057668 -11.204619 0.642024 5.065259 -13.468948 -1.611403 -28.334064 2.668732 4.269926 -43.906961 -3.230178 13.567110 11.739953 -72.904439 13.498972 3.588769 -10.475538 -10.522534 25.588645 10.154894 4.299019 58.882636 9.520581 19.474319 -4.438564 24.840948 7.607418 1.710780 2.953093 4.500447 
0.020470 0.225184 0.991194 89.606492 0.622501 90.291434 6.666309 0.742477 -3.622852 -3.718542 -6.328757 7.914951 -0.218300 8.036000 -7.120134 0.000000 -0.000000 0.000000 -4.565006 -2.159328 -4.068264 -0.184765 2.500825 8.160319 3.252549 -4.373308 -5.734792 0.000000 -0.000000 0.000000 -0.770572 0.779710 10.672378 -2.614889 -0.001192 2.973839 -2.482041 0.579465 -4.216385 0.090406 -11.139161 0.480347 4.974070 -13.631770 -0.936802 -27.904595 2.550238 4.493368 -44.202523 -3.249286 13.427433 12.238148 -73.119994 13.101320 3.876182 -10.437317 -10.899872 25.397570 10.236714 4.426383 59.096183 9.449809 19.485257 -4.531346 25.028218 7.834474 1.465521 3.114808 4.051674 
0.019642 0.224766 0.991096 89.626821 0.610422 90.295940 6.597378 0.637524 -3.676352 -3.677576 -6.328248 7.897528 -0.093833 8.067166 -7.099106 0.000000 -0.000000 0.000000 -4.541230 -2.185137 -4.087608 -0.210020 2.533329 8.078732 3.303962 -4.410237 -5.700996 0.000000 -0.000000 0.000000 -0.848220 0.759974 10.940832 -2.631494 -0.015578 2.634016 -2.407939 0.552884 -4.033314 0.100320 -11.213292 0.276868 4.906780 -13.896666 -0.611534 -27.615219 2.459395 4.487115 -44.353434 -3.262218 13.435240 12.288000 -73.109097 13.136734 4.152715 -10.409604 -11.165810 25.271920 10.337701 4.404119 59.140842 9.475495 19.524915 -4.365436 24.975168 8.003893 1.087382 3.237272 3.681467 
0.018832 0.224414 0.990935 89.542974 0.621436 90.309372 6.557631 0.604521 -3.626788 -3.638289 -6.333070 7.720402 -0.023629 8.105641 -7.069214 0.000000 -0.000000 0.000000 -4.498453 -2.145086 -4.150544 -0.215888 2.558018 8.018722 3.335416 -4.383913 -5.667414 0.000000 -0.000000 0.000000 -0.917246 0.777488 11.251494 -2.649099 0.023400 2.277077 -2.348301 0.557818 -3.938444 0.139894 -11.383796 0.107327 4.946444 -14.154066 -0.421806 -27.385865 2.367347 4.547818 -44.462297 -3.144552 13.423937 12.392994 -73.138104 12.938289 4.385221 -10.282282 -11.324400 25.251408 10.462632 4.484397 59.156314 9.410688 19.486021 -4.448206 24.935193 7.868951 0.700384 3.185839 3.774770 
0.018211 0.224269 0.990834 89.549544 0.629706 90.365033 6.557925 0.607177 -3.634270 -3.613385 -6.315406 7.520282 -0.026773 8.068965 -6.995138 0.000000 -0.000000 0.000000 -4.467440 -2.148367 -4.213728 -0.225816 2.537310 7.935432 3.344475 -4.373660 -5.631947 0.000000 -0.000000 0.000000 -0.947450 0.793354 11.345771 -2.638914 -0.013161 2.187498 -2.321016 0.566675 -3.922209 0.091617 -11.594915 -0.020282 4.965574 -14.488583 -0.428391 -27.251138 2.315361 4.643430 -44.483633 -3.061318 13.390854 12.341811 -73.070048 13.127691 4.111606 -10.302103 -11.314663 25.273762 10.495818 4.585730 59.175613 9.345097 19.344598 -4.596125 24.889303 7.839672 0.811696 3.142642 3.955708 
0.017554 0.224246 0.990805 89.579790 0.653937 90.377135 6.593017 0.619329 -3.699702 -3.637373 -6.294604 7.535308 -0.042389 8.000874 -6.976539 0.000000 -0.000000 0.000000 -4.436810 -2.185539 -4.230666 -0.222283 2.518729 7.856223 3.381254 -4.351265 -5.577112 0.000000 -0.000000 0.000000 -0.945799 0.786187 11.487985 -2.632372 -0.052008 2.152908 -2.292257 0.568521 -3.902141 0.061759 -11.921004 -0.090056 5.003551 -14.857278 -0.444593 -27.245040 2.320612 4.721849 -44.452604 -2.967868 13.344212 12.346973 -73.057195 13.043069 4.074955 -10.293797 -11.136701 25.306022 10.526304 4.612643 59.023505 9.248285 19.227872 -4.486316 24.999048 7.942791 0.593196 3.287282 3.971647 
0.017096 0.224307 0.990693 89.542010 0.671188 90.378160 6.596218 0.646843 -3.681404 -3.630984 -6.316355 7.446283 -0.049194 7.998044 -6.916091 0.000000 -0.000000 0.000000 -4.400695 -2.165125 -4.251852 -0.241833 2.573985 7.810990 3.369560 -4.367708 -5.585043 0.000000 -0.000000 0.000000 -0.960920 0.781923 11.570029 -2.615723 -0.038778 2.131728 -2.273613 0.572917 -3.901044 0.062991 -12.173329 -0.084856 5.009494 -15.055648 -0.349213 -27.144527 2.372142 4.761700 -44.487918 -2.893193 13.304107 12.056594 -73.004445 13.345988 4.030149 -10.267649 -11.351146 25.241618 10.544432 4.627468 59.047857 9.175763 19.207554 -4.552305 25.065003 7.901106 0.539678 3.373671 3.928892 
0.016341 0.224347 0.990645 89.454426 0.661665 90.359943 6.576928 0.682409 -3.660514 -3.631580 -6.287972 7.356066 -0.089071 8.030783 -6.851557 0.000000 -0.000000 0.000000 -4.382900 -2.094147 -4.316175 -0.284923 2.555868 7.825215 3.384220 -4.353653 -5.521562 0.000000 -0.000000 0.000000 -1.008574 0.775035 11.701506 -2.618680 -0.000381 2.128139 -2.274362 0.597670 -3.924702 0.148816 -12.383248 -0.052505 5.073423 -15.252906 -0.285166 -27.058049 2.411038 4.781753 -44.467096 -2.819964 13.331602 11.675771 -72.890160 13.860206 4.164103 -10.424876 -11.499859 25.185446 10.569208 4.666584 59.047771 9.183392 19.193778 -4.590105 25.226109 7.911123 0.375331 3.416763 3.708914 
0.015707 0.224360 0.990629 89.474752 0.668219 90.340843 6.559782 0.695889 -3.702538 -3.619921 -6.303422 7.392830 -0.054175 7.998968 -6.862637 0.000000 -0.000000 0.000000 -4.362334 -2.153732 -4.336937 -0.295958 2.572262 7.823328 3.387671 -4.352378 -5.553287 0.000000 -0.000000 0.000000 -1.047722 0.804006 11.783902 -2.603539 -0.044125 2.134457 -2.240759 0.570915 -3.887510 0.239824 -12.358122 -0.047090 5.184723 -15.186929 -0.295281 -27.041130 2.409331 4.872544 -44.480817 -2.786728 13.233451 11.724152 -72.944370 13.741701 4.126972 -10.355810 -11.456748 25.171472 10.540908 4.643867 59.045185 9.194506 19.134723 -4.689003 25.446872 7.819276 0.439463 3.417491 3.839061 
0.015216 0.224480 0.990623 89.448246 0.669580 90.366994 6.543180 0.700892 -3.767173 -3.614833 -6.302277 7.403072 -0.045295 8.053806 -6.870702 0.000000 -0.000000 0.000000 -4.363570 -2.132154 -4.428462 -0.293861 2.609884 7.875222 3.355322 -4.323250 -5.553625 0.000000 -0.000000 0.000000 -1.051883 0.794986 11.816042 -2.594109 -0.041810 2.091173 -2.229321 0.571015 -3.889720 0.273149 -12.268421 -0.014103 5.145982 -15.047388 -0.132961 -27.054315 2.438318 4.890137 -44.512562 -2.693392 13.230015 11.714279 -72.987590 13.727759 4.170402 -10.250640 -11.473985 25.186451 10.509540 4.689322 59.010286 9.206728 19.128547 -4.777108 25.655631 7.840680 0.468556 3.403023 3.842846 
0.014448 0.224490 0.990586 89.453040 0.661827 90.383967 6.533215 0.638821 -3.846933 -3.610432 -6.252902 7.407133 -0.019585 8.029767 -6.807251 0.000000 -0.000000 0.000000 -4.349880 -2.163137 -4.539998 -0.315132 2.649154 7.925451 3.381208 -4.349438 -5.473481 0.000000 -0.000000 0.000000 -1.090699 0.807162 11.820532 -2.562074 -0.074478 2.101083 -2.188519 0.513992 -3.810174 0.357750 -11.891943 -0.057310 5.057296 -14.631581 0.044177 -27.044543 2.421486 4.960573 -44.528900 -2.699620 13.182969 11.614753 -72.986099 13.788176 4.413831 -10.336369 -11.399311 25.205954 10.506936 4.721456 58.948590 9.313400 19.194716 -4.894518 25.975736 7.775677 0.399366 3.465710 3.814585 
0.013831 0.224513 0.990555 89.497478 0.656731 90.382970 6.510039 0.580635 -3.866108 -3.567269 -6.241788 7.358269 -0.005360 8.029147 -6.748230 0.000000 -0.000000 0.000000 -4.335140 -2.169731 -4.552351 -0.338336 2.637117 7.878928 3.394403 -4.357095 -5.424286 0.000000 -0.000000 0.000000 -1.087842 0.843817 11.875932 -2.533802 -0.109201 2.078338 -2.164244 0.441697 -3.771215 0.453569 -11.508455 -0.054706 4.975309 -14.285679 0.016806 -27.062974 2.418140 4.916334 -44.482717 -2.661256 13.213006 11.290319 -73.089447 14.077818 4.460654 -10.307779 -11.416762 25.163546 10.366927 4.655907 58.962062 9.367628 19.303202 -4.959725 26.462533 7.846278 0.052252 3.498891 3.771862 
